<svg xmlns="http://www.w3.org/2000/svg" viewBox="0 0 200 200" fill="none">
  <!-- Background Circle -->
  <circle cx="100" cy="100" r="90" fill="#0ea5e9" opacity="0.1"/>
  
  <!-- Server Icon Base -->
  <rect x="50" y="60" width="100" height="30" rx="4" fill="#0ea5e9"/>
  <rect x="50" y="95" width="100" height="30" rx="4" fill="#0284c7"/>
  <rect x="50" y="130" width="100" height="30" rx="4" fill="#0369a1"/>
  
  <!-- Server Lights -->
  <circle cx="65" cy="75" r="3" fill="#10b981"/>
  <circle cx="75" cy="75" r="3" fill="#10b981"/>
  <circle cx="85" cy="75" r="3" fill="#fbbf24"/>
  
  <circle cx="65" cy="110" r="3" fill="#10b981"/>
  <circle cx="75" cy="110" r="3" fill="#10b981"/>
  <circle cx="85" cy="110" r="3" fill="#10b981"/>
  
  <circle cx="65" cy="145" r="3" fill="#10b981"/>
  <circle cx="75" cy="145" r="3" fill="#fbbf24"/>
  <circle cx="85" cy="145" r="3" fill="#ef4444"/>
  
  <!-- Monitoring Wave -->
  <path d="M 100 75 L 110 70 L 120 75 L 130 65 L 135 75" 
        stroke="#ffffff" stroke-width="2" fill="none" stroke-linecap="round"/>
  
  <path d="M 100 110 L 110 105 L 120 110 L 130 100 L 135 110" 
        stroke="#ffffff" stroke-width="2" fill="none" stroke-linecap="round"/>
  
  <path d="M 100 145 L 110 140 L 120 145 L 130 135 L 135 145" 
        stroke="#ffffff" stroke-width="2" fill="none" stroke-linecap="round"/>
</svg>
